<svg width="20" height="19" viewBox="0 0 20 19" fill="none" xmlns="http://www.w3.org/2000/svg">
<path d="M18.7406 3.02895L9.74062 0.028948C9.62501 -0.00964933 9.49999 -0.00964933 9.38437 0.028948L0.384375 3.02895C0.272453 3.06631 0.175114 3.13793 0.106134 3.23366C0.0371531 3.32939 2.40189e-05 3.44439 0 3.56239V11.0624C0 11.2116 0.0592632 11.3546 0.164752 11.4601C0.270242 11.5656 0.413316 11.6249 0.5625 11.6249C0.711684 11.6249 0.854758 11.5656 0.960248 11.4601C1.06574 11.3546 1.125 11.2116 1.125 11.0624V4.34239L4.75125 5.55176C4.29396 6.22756 3.98409 6.99208 3.84179 7.79555C3.6995 8.59903 3.72797 9.42346 3.92535 10.2152C4.12273 11.007 4.48461 11.7483 4.98743 12.3909C5.49024 13.0336 6.12274 13.5631 6.84375 13.9452C5.03906 14.5574 3.46875 15.7818 2.34375 17.5077C2.27908 17.6316 2.26283 17.775 2.29815 17.9102C2.33347 18.0454 2.41784 18.1626 2.53483 18.239C2.65182 18.3154 2.79305 18.3455 2.93103 18.3235C3.06901 18.3015 3.19385 18.2289 3.28125 18.1199C4.73156 15.8989 7.02 14.6249 9.5625 14.6249C12.105 14.6249 14.3934 15.8989 15.8438 18.1199C15.9306 18.2312 16.0562 18.3058 16.1955 18.3288C16.3348 18.3519 16.4777 18.3216 16.5958 18.2442C16.7138 18.1667 16.7985 18.0477 16.8328 17.9107C16.8672 17.7738 16.8488 17.6289 16.7812 17.5049C15.6562 15.7818 14.0878 14.5574 12.2812 13.9424C13.0019 13.5599 13.6339 13.03 14.1363 12.3872C14.6386 11.7444 15 11.003 15.1969 10.2113C15.3939 9.41955 15.4219 8.59525 15.2793 7.79198C15.1367 6.98871 14.8265 6.22446 14.3691 5.54895L18.7406 4.09582C18.8525 4.0584 18.9497 3.98676 19.0187 3.89103C19.0876 3.79531 19.1247 3.68034 19.1247 3.56239C19.1247 3.44443 19.0876 3.32946 19.0187 3.23374C18.9497 3.13801 18.8525 3.06637 18.7406 3.02895ZM14.25 8.81239C14.2503 9.55932 14.0722 10.2955 13.7303 10.9596C13.3885 11.6238 12.8929 12.1966 12.2849 12.6304C11.6768 13.0642 10.9739 13.3464 10.2347 13.4535C9.49547 13.5606 8.74136 13.4895 8.03518 13.2462C7.32901 13.0028 6.69122 12.5942 6.17495 12.0544C5.65868 11.5146 5.27888 10.8592 5.06719 10.1429C4.8555 9.42663 4.81806 8.6701 4.95798 7.93639C5.09789 7.20268 5.41112 6.51302 5.87156 5.92489L9.38437 7.09582C9.49999 7.13442 9.62501 7.13442 9.74062 7.09582L13.2534 5.92489C13.9001 6.74834 14.2511 7.76535 14.25 8.81239ZM9.5625 5.96989L2.34375 3.56239L9.5625 1.15489L16.7812 3.56239L9.5625 5.96989Z" fill="#293138"/>
</svg>
