<svg width="122" height="21" viewBox="0 0 122 21" fill="none" xmlns="http://www.w3.org/2000/svg">
<path d="M12.1133 19.168V19.9062H0.259766V19.168H12.1133ZM0.738281 0V19.9062H0V0H0.738281ZM10.7188 9.29688V10.0352H0.259766V9.29688H10.7188ZM12.1133 0V0.738281H0.259766V0H12.1133ZM20.8912 19.9062H16.0377L16.065 19.168H20.8912C22.3222 19.168 23.5982 18.8262 24.7193 18.1426C25.8495 17.459 26.7382 16.5156 27.3853 15.3125C28.0416 14.1094 28.3697 12.7285 28.3697 11.1699V8.69531C28.3697 7.53776 28.1828 6.47591 27.8091 5.50977C27.4354 4.53451 26.9114 3.69141 26.2369 2.98047C25.5624 2.26953 24.7694 1.7181 23.858 1.32617C22.9465 0.934245 21.9576 0.738281 20.8912 0.738281H15.9556V0H20.8912C22.067 0 23.1516 0.209635 24.1451 0.628906C25.1477 1.04818 26.0181 1.64518 26.7564 2.41992C27.5038 3.19466 28.0826 4.11979 28.4927 5.19531C28.9029 6.26172 29.108 7.44206 29.108 8.73633V11.1699C29.108 12.4642 28.9029 13.6491 28.4927 14.7246C28.0826 15.791 27.5038 16.7116 26.7564 17.4863C26.0181 18.2611 25.1477 18.8581 24.1451 19.2773C23.1516 19.6966 22.067 19.9062 20.8912 19.9062ZM16.1197 0V19.9062H15.3814V0H16.1197ZM45.8019 0H46.5402V13.4941C46.5402 14.9798 46.2439 16.2194 45.6515 17.2129C45.059 18.2064 44.2478 18.9492 43.2179 19.4414C42.1971 19.9336 41.0395 20.1797 39.7452 20.1797C38.451 20.1797 37.2889 19.9336 36.2589 19.4414C35.2381 18.9492 34.4269 18.2064 33.8253 17.2129C33.2329 16.2194 32.9366 14.9798 32.9366 13.4941V0H33.6749V13.4941C33.6749 14.7702 33.9392 15.8548 34.4679 16.748C35.0057 17.6322 35.7303 18.3021 36.6417 18.7578C37.5623 19.2135 38.5968 19.4414 39.7452 19.4414C40.8937 19.4414 41.9236 19.2135 42.8351 18.7578C43.7557 18.3021 44.4803 17.6322 45.0089 16.748C45.5376 15.8548 45.8019 14.7702 45.8019 13.4941V0ZM62.2223 19.168V19.9062H51.5309V19.168H62.2223ZM52.0095 0V19.9062H51.2575V0H52.0095ZM71.383 11.498H65.3401V10.7598H71.383C72.7229 10.7598 73.8121 10.541 74.6506 10.1035C75.4892 9.6569 76.0998 9.0599 76.4827 8.3125C76.8746 7.5651 77.0705 6.74023 77.0705 5.83789C77.0705 4.89909 76.8746 4.04688 76.4827 3.28125C76.0998 2.50651 75.4892 1.89128 74.6506 1.43555C73.8121 0.970703 72.7229 0.738281 71.383 0.738281H65.9006V19.9062H65.1623V0H71.383C72.7958 0 73.9761 0.241536 74.9241 0.724609C75.8811 1.20768 76.6011 1.88672 77.0842 2.76172C77.5673 3.6276 77.8088 4.64388 77.8088 5.81055C77.8088 6.97721 77.5673 7.98893 77.0842 8.8457C76.6103 9.69336 75.8948 10.3496 74.9377 10.8145C73.9898 11.2702 72.8049 11.498 71.383 11.498ZM95.1863 9.29688V10.0352H81.7879V9.29688H95.1863ZM82.157 0V19.9062H81.4187V0H82.157ZM95.6102 0V19.9062H94.8719V0H95.6102ZM101.804 0V19.9062H101.066V0H101.804ZM121.601 0V19.9062H120.863L108.012 1.25781V19.9062H107.26V0H108.012L120.863 18.6074V0H121.601Z" fill="url(#paint0_linear_785_27416)"/>
<defs>
<linearGradient id="paint0_linear_785_27416" x1="95.1891" y1="3.33483" x2="138.02" y2="26.3509" gradientUnits="userSpaceOnUse">
<stop stop-color="white"/>
<stop offset="1" stop-color="#757A8C" stop-opacity="0"/>
</linearGradient>
</defs>
</svg>
