<svg width="190" height="51" viewBox="0 0 190 51" fill="none" xmlns="http://www.w3.org/2000/svg">
<path d="M42.8364 18.1672C45.4728 18.855 45.6085 20.8846 43.4239 23.0212C44.1219 23.9524 43.3544 24.6082 40.7535 25.9231C35.3189 28.6861 32.7309 33.4724 31.7809 39.6936C31.9944 41.5946 33.0662 41.6846 34.5582 40.5378C36.2645 38.9429 38.93 39.0167 39.4717 39.377C40.0133 39.7374 37.8197 40.5679 38.0297 41.6985C37.9604 42.5266 35.4144 43.4396 35.4661 43.9145C35.5178 44.3894 36.7213 44.6476 36.7479 45.9722V49.4544C36.4705 49.7933 34.218 49.1905 33.0627 46.6053C32.604 44.3503 32.1227 43.3948 30.4457 42.912C23.0594 41.23 19.9794 38.8918 17.3074 30.9353C17.6865 30.4784 20.2983 30.0912 19.9778 30.1967C19.6574 30.3022 15.7251 30.7773 13.7825 32.2544C10.3703 28.0622 15.7603 24.604 20.5653 23.7071C25.3703 22.8102 17.3074 24.1292 17.3074 24.1292C18.0548 20.9933 19.4137 18.4579 21.1296 16.4789M42.8364 18.1672C42.5593 13.4049 38.0197 10.7837 32.7974 10.9253M42.8364 18.1672C41.8815 17.9817 41.4061 18.1156 40.9715 18.431M24.2522 13.7045C26.919 11.8954 29.9591 11.0023 32.7974 10.9253M24.2522 13.7045C24.5492 10.069 28.6234 7.41851 32.7974 10.9253M24.2522 13.7045C23.1312 14.465 22.0761 15.3873 21.1296 16.4789M38.4053 11.7304L41.4495 9.30342C42.1111 8.66988 42.2264 8.336 41.4495 7.82612L28.151 4.50219C27.296 4.37081 26.8668 4.41738 26.2283 4.81875L15.3865 13.7045C14.9108 14.4935 15.1388 14.7433 15.8671 15.0543L17.7364 15.5604M21.1296 16.4789L17.7364 15.5604M17.7364 15.5604C16.4641 16.2075 16.7751 17.2175 14.4785 17.2175M14.4785 17.2175C12.7706 16.2188 11.7595 16.2106 10.0885 17.2175C8.87201 17.7459 6.89463 17.4286 6.41396 16.7955C5.93329 16.1623 4.54469 20.0139 4.43787 20.5942C4.33106 21.1746 7.92535 22.0904 10.6332 21.1746C12.7944 20.2883 13.6028 19.3713 14.4785 17.2175Z" stroke="url(#paint0_linear_716_26419)" stroke-linecap="round"/>
<path d="M65.8535 30.001V31.4365H54.6562V30.001H65.8535ZM55.1621 11.5303V31.4365H53.4805V11.5303H55.1621ZM64.459 20.458V21.8936H54.6562V20.458H64.459ZM65.7852 11.5303V12.9795H54.6562V11.5303H65.7852ZM74.3033 31.4365H69.7916L69.8189 30.001H74.3033C75.7343 30.001 76.9647 29.682 77.9947 29.0439C79.0337 28.3968 79.8358 27.5036 80.4009 26.3643C80.966 25.2249 81.2486 23.9033 81.2486 22.3994V20.54C81.2486 19.3916 81.0845 18.3525 80.7564 17.4229C80.4374 16.4932 79.9771 15.7002 79.3755 15.0439C78.774 14.3786 78.0539 13.8682 77.2154 13.5127C76.386 13.1572 75.4563 12.9795 74.4263 12.9795H69.7095V11.5303H74.4263C75.6659 11.5303 76.8007 11.7445 77.8306 12.1729C78.8697 12.5921 79.7675 13.2028 80.524 14.0049C81.2896 14.7979 81.8775 15.7503 82.2877 16.8623C82.7069 17.9743 82.9166 19.2139 82.9166 20.5811V22.3994C82.9166 23.7666 82.7069 25.0062 82.2877 26.1182C81.8775 27.2301 81.2896 28.1826 80.524 28.9756C79.7584 29.7686 78.8515 30.3792 77.8033 30.8076C76.7551 31.2269 75.5884 31.4365 74.3033 31.4365ZM70.5435 11.5303V31.4365H68.8619V11.5303H70.5435ZM98.6671 11.5303H100.349V25.0107C100.349 26.5055 100.034 27.7497 99.4054 28.7432C98.7765 29.7367 97.9288 30.4795 96.8624 30.9717C95.8051 31.4639 94.6339 31.71 93.3488 31.71C92.0271 31.71 90.8377 31.4639 89.7804 30.9717C88.7231 30.4795 87.8846 29.7367 87.2648 28.7432C86.6541 27.7497 86.3488 26.5055 86.3488 25.0107V11.5303H88.0167V25.0107C88.0167 26.1683 88.2446 27.139 88.7003 27.9229C89.156 28.7067 89.7849 29.2946 90.587 29.6865C91.3891 30.0785 92.3097 30.2744 93.3488 30.2744C94.3787 30.2744 95.2947 30.0785 96.0968 29.6865C96.8989 29.2946 97.5278 28.7067 97.9835 27.9229C98.4392 27.139 98.6671 26.1683 98.6671 25.0107V11.5303ZM116.031 30.001V31.4365H105.709V30.001H116.031ZM106.201 11.5303V31.4365H104.519V11.5303H106.201ZM125.492 23.3291H119.819V21.8936H125.492C126.677 21.8936 127.639 21.7021 128.377 21.3193C129.125 20.9274 129.667 20.3988 130.004 19.7334C130.35 19.068 130.524 18.3206 130.524 17.4912C130.524 16.68 130.35 15.9326 130.004 15.249C129.667 14.5654 129.125 14.0186 128.377 13.6084C127.639 13.1891 126.677 12.9795 125.492 12.9795H120.406V31.4365H118.725V11.5303H125.492C126.951 11.5303 128.177 11.7809 129.17 12.2822C130.173 12.7835 130.929 13.4808 131.44 14.374C131.95 15.2673 132.205 16.2972 132.205 17.4639C132.205 18.6852 131.95 19.738 131.44 20.6221C130.929 21.4971 130.177 22.167 129.184 22.6318C128.19 23.0967 126.96 23.3291 125.492 23.3291ZM148.804 20.458V21.8936H136.704V20.458H148.804ZM137.1 11.5303V31.4365H135.419V11.5303H137.1ZM150.157 11.5303V31.4365H148.475V11.5303H150.157ZM156.734 11.5303V31.4365H155.052V11.5303H156.734ZM176.408 11.5303V31.4365H174.713L163.269 14.4287V31.4365H161.588V11.5303H163.269L174.74 28.5381V11.5303H176.408Z" fill="url(#paint1_linear_716_26419)"/>
<path d="M55.7319 47.4492H54.2817L54.2905 46.9878H55.7319C56.1919 46.9878 56.5874 46.8853 56.9185 46.6802C57.2524 46.4722 57.5103 46.1851 57.6919 45.8188C57.8735 45.4526 57.9644 45.0278 57.9644 44.5444V43.9468C57.9644 43.5776 57.9116 43.2437 57.8062 42.9448C57.7036 42.646 57.5557 42.3911 57.3623 42.1802C57.1689 41.9663 56.9375 41.8022 56.668 41.688C56.4014 41.5737 56.1025 41.5166 55.7715 41.5166H54.2554V41.0508H55.7715C56.1699 41.0508 56.5347 41.1196 56.8657 41.2573C57.1997 41.3921 57.4883 41.5884 57.7314 41.8462C57.9775 42.1011 58.1665 42.4072 58.2983 42.7646C58.4331 43.1221 58.5005 43.5205 58.5005 43.96V44.5444C58.5005 44.9839 58.4331 45.3823 58.2983 45.7397C58.1665 46.0972 57.9775 46.4033 57.7314 46.6582C57.4854 46.9131 57.1938 47.1094 56.8569 47.2471C56.52 47.3818 56.145 47.4492 55.7319 47.4492ZM54.5234 41.0508V47.4492H53.9829V41.0508H54.5234ZM62.7896 41.0508V47.4492H62.249V41.0508H62.7896ZM68.7793 46.6538L70.7964 41.0508H71.3853L69.0034 47.4492H68.5684L68.7793 46.6538ZM66.6963 41.0508L68.7046 46.6538L68.9243 47.4492H68.4849L66.1074 41.0508H66.6963ZM78.5615 46.9878V47.4492H74.9624V46.9878H78.5615ZM75.125 41.0508V47.4492H74.5845V41.0508H75.125ZM78.1133 43.9204V44.3818H74.9624V43.9204H78.1133ZM78.5396 41.0508V41.5166H74.9624V41.0508H78.5396ZM81.8662 44.2983C81.8662 44.1958 81.8984 44.1094 81.9629 44.0391C82.0303 43.9658 82.1211 43.9292 82.2354 43.9292C82.3496 43.9292 82.4404 43.9658 82.5078 44.0391C82.5752 44.1094 82.6089 44.1958 82.6089 44.2983C82.6089 44.3979 82.5752 44.4829 82.5078 44.5532C82.4404 44.6206 82.3496 44.6543 82.2354 44.6543C82.1211 44.6543 82.0303 44.6206 81.9629 44.5532C81.8984 44.4829 81.8662 44.3979 81.8662 44.2983ZM87.0825 41.0508V47.4492H86.542V41.0508H87.0825ZM95.8364 41.0508V47.4492H95.2915L91.6133 41.9824V47.4492H91.0728V41.0508H91.6133L95.3003 46.5176V41.0508H95.8364ZM101.734 41.0508V47.4492H101.198V41.0508H101.734ZM103.927 41.0508V41.5166H99.0093V41.0508H103.927ZM111.819 43.9072V44.5928C111.819 45.041 111.761 45.4468 111.644 45.8101C111.529 46.1704 111.362 46.4795 111.143 46.7373C110.926 46.9951 110.665 47.1929 110.36 47.3306C110.056 47.4683 109.713 47.5371 109.332 47.5371C108.96 47.5371 108.62 47.4683 108.312 47.3306C108.008 47.1929 107.746 46.9951 107.526 46.7373C107.306 46.4795 107.136 46.1704 107.016 45.8101C106.896 45.4468 106.836 45.041 106.836 44.5928V43.9072C106.836 43.459 106.895 43.0547 107.012 42.6943C107.132 42.3311 107.302 42.0205 107.521 41.7627C107.741 41.5049 108.003 41.3071 108.308 41.165C108.613 41.0317 108.951 40.9629 109.323 40.9629C109.704 40.9629 110.047 41.0317 110.352 41.1694C110.656 41.3071 110.918 41.5049 111.138 41.7627C111.358 42.0205 111.526 42.3311 111.644 42.6943C111.761 43.0547 111.819 43.459 111.819 43.9072ZM111.283 44.5928V43.8984C111.283 43.5205 111.239 43.1807 111.151 42.8789C111.066 42.5771 110.939 42.3193 110.769 42.1055C110.602 41.8916 110.397 41.7275 110.154 41.6133C109.911 41.499 109.634 41.4419 109.323 41.4419C109.021 41.4419 108.75 41.499 108.51 41.6133C108.27 41.7275 108.065 41.8916 107.895 42.1055C107.728 42.3193 107.599 42.5771 107.508 42.8789C107.42 43.1807 107.376 43.5205 107.376 43.8984V44.5928C107.376 44.9736 107.42 45.3164 107.508 45.6211C107.599 45.9229 107.729 46.1821 107.899 46.3989C108.069 46.6128 108.274 46.7769 108.515 46.8911C108.758 47.0054 109.03 47.0625 109.332 47.0625C109.646 47.0625 109.922 47.0054 110.163 46.8911C110.403 46.7769 110.606 46.6128 110.773 46.3989C110.94 46.1821 111.066 45.9229 111.151 45.6211C111.239 45.3164 111.283 44.9736 111.283 44.5928ZM115.344 44.2983C115.344 44.1958 115.376 44.1094 115.44 44.0391C115.508 43.9658 115.599 43.9292 115.713 43.9292C115.827 43.9292 115.918 43.9658 115.985 44.0391C116.053 44.1094 116.086 44.1958 116.086 44.2983C116.086 44.3979 116.053 44.4829 115.985 44.5532C115.918 44.6206 115.827 44.6543 115.713 44.6543C115.599 44.6543 115.508 44.6206 115.44 44.5532C115.376 44.4829 115.344 44.3979 115.344 44.2983ZM123.601 46.9878V47.4492H120.283V46.9878H123.601ZM120.441 41.0508V47.4492H119.901V41.0508H120.441ZM130.874 46.9878V47.4492H127.275V46.9878H130.874ZM127.438 41.0508V47.4492H126.897V41.0508H127.438ZM130.426 43.9204V44.3818H127.275V43.9204H130.426ZM130.852 41.0508V41.5166H127.275V41.0508H130.852ZM136.372 41.4331L134.157 47.4492H133.594L136.011 41.0508H136.402L136.372 41.4331ZM138.384 47.4492L136.165 41.4331L136.134 41.0508H136.525L138.947 47.4492H138.384ZM137.989 45.1904V45.6562H134.592V45.1904H137.989ZM142.133 41.0508H144.211C144.654 41.0508 145.038 41.1226 145.363 41.2661C145.688 41.4097 145.938 41.6221 146.114 41.9033C146.293 42.1816 146.382 42.5244 146.382 42.9316C146.382 43.2334 146.318 43.5073 146.189 43.7534C146.063 43.9995 145.889 44.2061 145.666 44.373C145.443 44.5371 145.186 44.6499 144.893 44.7114L144.704 44.7817H142.484L142.476 44.3203H144.334C144.668 44.3203 144.947 44.2559 145.169 44.127C145.392 43.998 145.559 43.8281 145.67 43.6172C145.785 43.4033 145.842 43.1748 145.842 42.9316C145.842 42.6416 145.779 42.3911 145.653 42.1802C145.53 41.9663 145.347 41.8022 145.104 41.688C144.86 41.5737 144.563 41.5166 144.211 41.5166H142.673V47.4492H142.133V41.0508ZM146.083 47.4492L144.427 44.5884L145.007 44.584L146.659 47.3921V47.4492H146.083ZM154.881 41.0508V47.4492H154.336L150.658 41.9824V47.4492H150.118V41.0508H150.658L154.345 46.5176V41.0508H154.881ZM159.425 41.0508V47.4492H158.885V41.0508H159.425ZM168.179 41.0508V47.4492H167.634L163.956 41.9824V47.4492H163.416V41.0508H163.956L167.643 46.5176V41.0508H168.179ZM176.678 44.4082V46.6846C176.605 46.793 176.479 46.9131 176.3 47.0449C176.122 47.1768 175.881 47.2925 175.58 47.3921C175.278 47.4888 174.903 47.5371 174.455 47.5371C174.08 47.5371 173.735 47.4697 173.422 47.335C173.108 47.2002 172.836 47.0054 172.604 46.7505C172.376 46.4927 172.199 46.1836 172.073 45.8232C171.95 45.4629 171.888 45.0586 171.888 44.6104V43.8369C171.888 43.3975 171.945 43.002 172.06 42.6504C172.174 42.2959 172.339 41.9927 172.556 41.7407C172.773 41.4888 173.034 41.2969 173.338 41.165C173.646 41.0303 173.99 40.9629 174.371 40.9629C174.846 40.9629 175.246 41.0449 175.571 41.209C175.896 41.373 176.149 41.5986 176.331 41.8857C176.516 42.1699 176.63 42.4922 176.674 42.8525H176.133C176.092 42.5977 176.007 42.3633 175.878 42.1494C175.75 41.9326 175.562 41.7583 175.316 41.6265C175.073 41.4946 174.758 41.4287 174.371 41.4287C174.061 41.4287 173.784 41.4858 173.541 41.6001C173.3 41.7144 173.098 41.877 172.934 42.0879C172.77 42.2988 172.646 42.5522 172.561 42.8481C172.476 43.1411 172.433 43.4678 172.433 43.8281V44.6104C172.433 44.9854 172.48 45.3237 172.574 45.6255C172.67 45.9272 172.808 46.1865 172.987 46.4033C173.166 46.6201 173.379 46.7871 173.628 46.9043C173.877 47.0186 174.154 47.0757 174.459 47.0757C174.784 47.0757 175.061 47.0449 175.29 46.9834C175.518 46.9219 175.701 46.8486 175.839 46.7637C175.979 46.6758 176.081 46.5938 176.142 46.5176V44.8696H174.424V44.4082H176.678Z" fill="url(#paint2_linear_716_26419)"/>
<defs>
<linearGradient id="paint0_linear_716_26419" x1="26.8485" y1="62.6228" x2="52.4589" y2="42.7954" gradientUnits="userSpaceOnUse">
<stop stop-color="#339CFE"/>
<stop offset="1" stop-color="#62CBFF"/>
</linearGradient>
<linearGradient id="paint1_linear_716_26419" x1="122.318" y1="48.008" x2="132.877" y2="12.4323" gradientUnits="userSpaceOnUse">
<stop stop-color="#339CFE"/>
<stop offset="1" stop-color="#62CBFF"/>
</linearGradient>
<linearGradient id="paint2_linear_716_26419" x1="122.324" y1="52.6397" x2="123.628" y2="39.8697" gradientUnits="userSpaceOnUse">
<stop stop-color="#339CFE"/>
<stop offset="1" stop-color="#62CBFF"/>
</linearGradient>
</defs>
</svg>
