<svg width="42" height="46" viewBox="0 0 42 46" fill="none" xmlns="http://www.w3.org/2000/svg">
<path d="M38.6511 13.9807C41.2876 14.6685 41.4233 16.6981 39.2386 18.8347C39.9366 19.7659 39.1691 20.4216 36.5682 21.7365C31.1336 24.4995 28.5456 29.2858 27.5957 35.5071C27.8092 37.4081 28.8809 37.4981 30.3729 36.3513C32.0792 34.7564 34.7447 34.8302 35.2864 35.1905C35.8281 35.5509 33.6345 36.3814 33.8444 37.512C33.7752 38.3401 31.2291 39.2531 31.2808 39.728C31.3325 40.2029 32.536 40.461 32.5626 41.7856V45.2678C32.2852 45.6068 30.0327 45.004 28.8775 42.4188C28.4188 40.1638 27.9374 39.2082 26.2605 38.7255C18.8741 37.0435 15.7941 34.7053 13.1222 26.7488C13.5012 26.2919 16.113 25.9047 15.7925 26.0102C15.4721 26.1157 11.5398 26.5908 9.59723 28.0678C6.18504 23.8757 11.575 20.4175 16.38 19.5206C21.185 18.6237 13.1222 19.9427 13.1222 19.9427C13.8696 16.8068 15.2284 14.2714 16.9443 12.2924M38.6511 13.9807C38.3741 9.21835 33.8344 6.59713 28.6122 6.73876M38.6511 13.9807C37.6962 13.7951 37.2208 13.9291 36.7862 14.2445M20.0669 9.51799C22.7338 7.70887 25.7738 6.81573 28.6122 6.73876M20.0669 9.51799C20.3639 5.88251 24.4381 3.23199 28.6122 6.73876M20.0669 9.51799C18.9459 10.2785 17.8908 11.2008 16.9443 12.2924M34.22 7.54389L37.2642 5.1169C37.9259 4.48335 38.0412 4.14948 37.2642 3.63959L23.9657 0.315664C23.1107 0.184282 22.6815 0.23086 22.043 0.632229L11.2012 9.51799C10.7255 10.307 10.9535 10.5568 11.6819 10.8678L13.5512 11.3738M16.9443 12.2924L13.5512 11.3738M13.5512 11.3738C12.2789 12.021 12.5898 13.031 10.2933 13.031M10.2933 13.031C8.58537 12.0323 7.57422 12.024 5.90328 13.031C4.68674 13.5594 2.70936 13.2421 2.22869 12.6089C1.74802 11.9758 0.359416 15.8273 0.252601 16.4077C0.145785 16.9881 3.74007 17.9039 6.44791 16.9881C8.60912 16.1018 9.41756 15.1848 10.2933 13.031Z" stroke="url(#paint0_linear_785_27415)" stroke-width="0.5" stroke-linecap="round"/>
<defs>
<linearGradient id="paint0_linear_785_27415" x1="31.2436" y1="13.1369" x2="48.4479" y2="15.2778" gradientUnits="userSpaceOnUse">
<stop stop-color="white"/>
<stop offset="1" stop-color="#757A8C" stop-opacity="0"/>
</linearGradient>
</defs>
</svg>
