<svg width="190" height="50" viewBox="0 0 190 50" fill="none" xmlns="http://www.w3.org/2000/svg">
<path d="M42.8373 18.1672C45.4738 18.855 45.6095 20.8846 43.4248 23.0212C44.1229 23.9524 43.3553 24.6082 40.7544 25.9231C35.3199 28.6861 32.7319 33.4723 31.7819 39.6936C31.9954 41.5946 33.0671 41.6846 34.5591 40.5378C36.2655 38.9429 38.931 39.0167 39.4727 39.377C40.0143 39.7374 37.8207 40.5679 38.0306 41.6985C37.9614 42.5266 35.4154 43.4396 35.4671 43.9145C35.5187 44.3894 36.7223 44.6476 36.7489 45.9722V49.4544C36.4714 49.7933 34.219 49.1905 33.0637 46.6053C32.605 44.3503 32.1237 43.3948 30.4467 42.912C23.0604 41.23 19.9803 38.8918 17.3084 30.9353C17.6875 30.4784 20.2992 30.0912 19.9788 30.1967C19.6583 30.3022 15.7261 30.7773 13.7835 32.2544C10.3713 28.0622 15.7613 24.604 20.5663 23.7071C25.3713 22.8102 17.3084 24.1292 17.3084 24.1292C18.0558 20.9933 19.4147 18.4579 21.1306 16.4789M42.8373 18.1672C42.5603 13.4049 38.0207 10.7837 32.7984 10.9253M42.8373 18.1672C41.8825 17.9817 41.4071 18.1156 40.9725 18.431M24.2532 13.7045C26.92 11.8954 29.96 11.0023 32.7984 10.9253M24.2532 13.7045C24.5502 10.069 28.6244 7.41851 32.7984 10.9253M24.2532 13.7045C23.1321 14.465 22.077 15.3873 21.1306 16.4789M38.4062 11.7304L41.4505 9.30342C42.1121 8.66988 42.2274 8.336 41.4505 7.82612L28.1519 4.50219C27.297 4.37081 26.8678 4.41738 26.2292 4.81875L15.3875 13.7045C14.9117 14.4935 15.1398 14.7433 15.8681 15.0543L17.7374 15.5604M21.1306 16.4789L17.7374 15.5604M17.7374 15.5604C16.4651 16.2075 16.7761 17.2175 14.4795 17.2175M14.4795 17.2175C12.7716 16.2188 11.7605 16.2106 10.0895 17.2175C8.87299 17.7459 6.89561 17.4286 6.41494 16.7955C5.93427 16.1623 4.54567 20.0139 4.43885 20.5942C4.33203 21.1746 7.92632 22.0904 10.6342 21.1746C12.7954 20.2883 13.6038 19.3713 14.4795 17.2175Z" stroke="url(#paint0_linear_785_25778)" stroke-width="0.5" stroke-linecap="round"/>
<path d="M65.7998 30.6982V31.4365H53.9463V30.6982H65.7998ZM54.4248 11.5303V31.4365H53.6865V11.5303H54.4248ZM64.4053 20.8271V21.5654H53.9463V20.8271H64.4053ZM65.7998 11.5303V12.2686H53.9463V11.5303H65.7998ZM74.5777 31.4365H69.7242L69.7515 30.6982H74.5777C76.0087 30.6982 77.2847 30.3564 78.4058 29.6729C79.536 28.9893 80.4247 28.0459 81.0718 26.8428C81.7281 25.6396 82.0562 24.2588 82.0562 22.7002V20.2256C82.0562 19.068 81.8694 18.0062 81.4957 17.04C81.122 16.0648 80.5979 15.2217 79.9234 14.5107C79.2489 13.7998 78.456 13.2484 77.5445 12.8564C76.633 12.4645 75.6441 12.2686 74.5777 12.2686H69.6421V11.5303H74.5777C75.7535 11.5303 76.8381 11.7399 77.8316 12.1592C78.8342 12.5785 79.7046 13.1755 80.4429 13.9502C81.1903 14.7249 81.7691 15.6501 82.1793 16.7256C82.5894 17.792 82.7945 18.9723 82.7945 20.2666V22.7002C82.7945 23.9945 82.5894 25.1794 82.1793 26.2549C81.7691 27.3213 81.1903 28.2419 80.4429 29.0166C79.7046 29.7913 78.8342 30.3883 77.8316 30.8076C76.8381 31.2269 75.7535 31.4365 74.5777 31.4365ZM69.8062 11.5303V31.4365H69.0679V11.5303H69.8062ZM99.4884 11.5303H100.227V25.0244C100.227 26.5101 99.9305 27.7497 99.338 28.7432C98.7456 29.7367 97.9344 30.4795 96.9044 30.9717C95.8836 31.4639 94.726 31.71 93.4318 31.71C92.1375 31.71 90.9754 31.4639 89.9454 30.9717C88.9246 30.4795 88.1134 29.7367 87.5118 28.7432C86.9194 27.7497 86.6232 26.5101 86.6232 25.0244V11.5303H87.3614V25.0244C87.3614 26.3005 87.6258 27.3851 88.1544 28.2783C88.6922 29.1624 89.4168 29.8324 90.3282 30.2881C91.2488 30.7438 92.2833 30.9717 93.4318 30.9717C94.5802 30.9717 95.6101 30.7438 96.5216 30.2881C97.4422 29.8324 98.1668 29.1624 98.6954 28.2783C99.2241 27.3851 99.4884 26.3005 99.4884 25.0244V11.5303ZM115.909 30.6982V31.4365H105.217V30.6982H115.909ZM105.696 11.5303V31.4365H104.944V11.5303H105.696ZM125.07 23.0283H119.027V22.29H125.07C126.409 22.29 127.499 22.0713 128.337 21.6338C129.176 21.1872 129.786 20.5902 130.169 19.8428C130.561 19.0954 130.757 18.2705 130.757 17.3682C130.757 16.4294 130.561 15.5771 130.169 14.8115C129.786 14.0368 129.176 13.4215 128.337 12.9658C127.499 12.501 126.409 12.2686 125.07 12.2686H119.587V31.4365H118.849V11.5303H125.07C126.482 11.5303 127.663 11.7718 128.611 12.2549C129.568 12.738 130.288 13.417 130.771 14.292C131.254 15.1579 131.495 16.1742 131.495 17.3408C131.495 18.5075 131.254 19.5192 130.771 20.376C130.297 21.2236 129.581 21.8799 128.624 22.3447C127.676 22.8005 126.491 23.0283 125.07 23.0283ZM148.873 20.8271V21.5654H135.474V20.8271H148.873ZM135.844 11.5303V31.4365H135.105V11.5303H135.844ZM149.297 11.5303V31.4365H148.558V11.5303H149.297ZM155.491 11.5303V31.4365H154.752V11.5303H155.491ZM175.288 11.5303V31.4365H174.55L161.698 12.7881V31.4365H160.946V11.5303H161.698L174.55 30.1377V11.5303H175.288Z" fill="url(#paint1_linear_785_25778)"/>
<path d="M55.8208 47.4492H54.2607L54.2695 47.2119H55.8208C56.2808 47.2119 56.6909 47.1021 57.0513 46.8823C57.4146 46.6626 57.7002 46.3594 57.9082 45.9727C58.1191 45.5859 58.2246 45.1421 58.2246 44.6411V43.8457C58.2246 43.4736 58.1646 43.1323 58.0444 42.8218C57.9243 42.5083 57.7559 42.2373 57.5391 42.0088C57.3223 41.7803 57.0674 41.603 56.7744 41.4771C56.4814 41.3511 56.1636 41.2881 55.8208 41.2881H54.2344V41.0508H55.8208C56.1987 41.0508 56.5474 41.1182 56.8667 41.2529C57.189 41.3877 57.4688 41.5796 57.7061 41.8286C57.9463 42.0776 58.1323 42.375 58.2642 42.7207C58.396 43.0635 58.4619 43.4429 58.4619 43.8589V44.6411C58.4619 45.0571 58.396 45.438 58.2642 45.7837C58.1323 46.1265 57.9463 46.4224 57.7061 46.6714C57.4688 46.9204 57.189 47.1123 56.8667 47.2471C56.5474 47.3818 56.1987 47.4492 55.8208 47.4492ZM54.2871 41.0508V47.4492H54.0498V41.0508H54.2871ZM62.6016 41.0508V47.4492H62.3643V41.0508H62.6016ZM68.7231 46.8252L70.8721 41.0508H71.1313L68.7407 47.4492H68.5166L68.7231 46.8252ZM66.3193 41.0508L68.4683 46.8252L68.6748 47.4492H68.4507L66.0601 41.0508H66.3193ZM78.3076 47.2119V47.4492H74.4976V47.2119H78.3076ZM74.6514 41.0508V47.4492H74.4141V41.0508H74.6514ZM77.8594 44.0391V44.2764H74.4976V44.0391H77.8594ZM78.3076 41.0508V41.2881H74.4976V41.0508H78.3076ZM81.6958 44.3467C81.6958 44.2793 81.7192 44.2222 81.7661 44.1753C81.813 44.1255 81.8701 44.1006 81.9375 44.1006C82.0049 44.1006 82.062 44.1255 82.1089 44.1753C82.1587 44.2222 82.1836 44.2793 82.1836 44.3467C82.1836 44.4141 82.1587 44.4712 82.1089 44.5181C82.062 44.5649 82.0049 44.5884 81.9375 44.5884C81.8701 44.5884 81.813 44.5649 81.7661 44.5181C81.7192 44.4712 81.6958 44.4141 81.6958 44.3467ZM86.5254 41.0508V47.4492H86.2881V41.0508H86.5254ZM95.3188 41.0508V47.4492H95.0815L90.9507 41.4551V47.4492H90.709V41.0508H90.9507L95.0815 47.0317V41.0508H95.3188ZM101.128 41.0508V47.4492H100.891V41.0508H101.128ZM103.458 41.0508V41.2881H98.562V41.0508H103.458ZM111.236 43.771V44.729C111.236 45.145 111.179 45.5259 111.064 45.8716C110.953 46.2144 110.792 46.5103 110.581 46.7593C110.373 47.0083 110.121 47.2002 109.825 47.335C109.529 47.4697 109.197 47.5371 108.828 47.5371C108.461 47.5371 108.129 47.4697 107.83 47.335C107.534 47.2002 107.279 47.0083 107.065 46.7593C106.854 46.5103 106.692 46.2144 106.578 45.8716C106.466 45.5259 106.411 45.145 106.411 44.729V43.771C106.411 43.3521 106.466 42.9712 106.578 42.6284C106.692 42.2856 106.854 41.9897 107.065 41.7407C107.276 41.4917 107.53 41.2998 107.826 41.165C108.122 41.0303 108.453 40.9629 108.819 40.9629C109.188 40.9629 109.521 41.0303 109.816 41.165C110.112 41.2998 110.366 41.4917 110.577 41.7407C110.791 41.9897 110.953 42.2856 111.064 42.6284C111.179 42.9712 111.236 43.3521 111.236 43.771ZM110.999 44.729V43.7622C110.999 43.3872 110.95 43.0444 110.854 42.7339C110.757 42.4204 110.615 42.1494 110.427 41.9209C110.24 41.6924 110.011 41.5151 109.742 41.3892C109.472 41.2632 109.165 41.2002 108.819 41.2002C108.476 41.2002 108.17 41.2632 107.9 41.3892C107.634 41.5151 107.407 41.6924 107.219 41.9209C107.035 42.1494 106.894 42.4204 106.797 42.7339C106.701 43.0444 106.652 43.3872 106.652 43.7622V44.729C106.652 45.1069 106.701 45.4526 106.797 45.7661C106.897 46.0796 107.039 46.3506 107.224 46.5791C107.411 46.8076 107.64 46.9849 107.909 47.1108C108.179 47.2368 108.485 47.2998 108.828 47.2998C109.173 47.2998 109.479 47.2368 109.746 47.1108C110.016 46.9849 110.243 46.8076 110.427 46.5791C110.615 46.3506 110.757 46.0796 110.854 45.7661C110.95 45.4526 110.999 45.1069 110.999 44.729ZM114.857 44.3467C114.857 44.2793 114.88 44.2222 114.927 44.1753C114.974 44.1255 115.031 44.1006 115.099 44.1006C115.166 44.1006 115.223 44.1255 115.27 44.1753C115.32 44.2222 115.345 44.2793 115.345 44.3467C115.345 44.4141 115.32 44.4712 115.27 44.5181C115.223 44.5649 115.166 44.5884 115.099 44.5884C115.031 44.5884 114.974 44.5649 114.927 44.5181C114.88 44.4712 114.857 44.4141 114.857 44.3467ZM122.798 47.2119V47.4492H119.361V47.2119H122.798ZM119.515 41.0508V47.4492H119.273V41.0508H119.515ZM130.066 47.2119V47.4492H126.256V47.2119H130.066ZM126.41 41.0508V47.4492H126.173V41.0508H126.41ZM129.618 44.0391V44.2764H126.256V44.0391H129.618ZM130.066 41.0508V41.2881H126.256V41.0508H130.066ZM135.384 41.2529L133.072 47.4492H132.813L135.208 41.0508H135.437L135.384 41.2529ZM137.634 47.4492L135.322 41.2529L135.274 41.0508H135.498L137.893 47.4492H137.634ZM136.957 45.3003V45.5376H133.753V45.3003H136.957ZM141.154 41.0508H143.193C143.6 41.0508 143.962 41.1226 144.278 41.2661C144.595 41.4067 144.842 41.6147 145.021 41.8901C145.203 42.1626 145.293 42.498 145.293 42.8965C145.293 43.207 145.226 43.4883 145.091 43.7402C144.957 43.9893 144.776 44.1943 144.551 44.3555C144.325 44.5166 144.073 44.6177 143.795 44.6587L143.659 44.7114H141.211L141.202 44.4741H143.408C143.774 44.4741 144.079 44.3979 144.322 44.2456C144.565 44.0933 144.749 43.897 144.872 43.6567C144.995 43.4136 145.056 43.1602 145.056 42.8965C145.056 42.5596 144.98 42.2725 144.828 42.0352C144.675 41.7949 144.458 41.6104 144.177 41.4814C143.899 41.3525 143.571 41.2881 143.193 41.2881H141.391V47.4492H141.154V41.0508ZM145.311 47.4492L143.558 44.6279L143.834 44.6191L145.562 47.3877V47.4492H145.311ZM153.924 41.0508V47.4492H153.687L149.556 41.4551V47.4492H149.314V41.0508H149.556L153.687 47.0317V41.0508H153.924ZM158.35 41.0508V47.4492H158.112V41.0508H158.35ZM167.143 41.0508V47.4492H166.906L162.775 41.4551V47.4492H162.533V41.0508H162.775L166.906 47.0317V41.0508H167.143ZM175.664 44.5488V46.7637C175.597 46.8604 175.469 46.9688 175.282 47.0889C175.097 47.209 174.854 47.3145 174.552 47.4053C174.253 47.4932 173.896 47.5371 173.48 47.5371C173.117 47.5371 172.784 47.4697 172.482 47.335C172.181 47.2002 171.92 47.0083 171.7 46.7593C171.48 46.5073 171.311 46.21 171.19 45.8672C171.073 45.5215 171.015 45.1406 171.015 44.7246V43.6787C171.015 43.2744 171.072 42.9067 171.186 42.5757C171.303 42.2446 171.467 41.959 171.678 41.7188C171.892 41.4756 172.146 41.2896 172.438 41.1606C172.731 41.0288 173.054 40.9629 173.405 40.9629C173.868 40.9629 174.259 41.0435 174.579 41.2046C174.898 41.3657 175.147 41.584 175.326 41.8594C175.507 42.1318 175.617 42.4395 175.655 42.7822H175.418C175.374 42.5039 175.279 42.2446 175.132 42.0044C174.986 41.7642 174.772 41.5708 174.491 41.4243C174.212 41.2749 173.851 41.2002 173.405 41.2002C173.08 41.2002 172.784 41.2617 172.518 41.3848C172.254 41.5049 172.027 41.6748 171.836 41.8945C171.649 42.1143 171.504 42.375 171.401 42.6768C171.302 42.9785 171.252 43.3096 171.252 43.6699V44.7246C171.252 45.1025 171.303 45.4482 171.406 45.7617C171.511 46.0752 171.662 46.3477 171.858 46.5791C172.055 46.8076 172.289 46.9849 172.562 47.1108C172.837 47.2368 173.143 47.2998 173.48 47.2998C173.829 47.2998 174.136 47.2646 174.403 47.1943C174.672 47.1211 174.894 47.0347 175.066 46.9351C175.242 46.8325 175.362 46.7388 175.427 46.6538V44.7905H173.471V44.5488H175.664Z" fill="url(#paint2_linear_785_25778)"/>
<defs>
<linearGradient id="paint0_linear_785_25778" x1="35.4298" y1="17.3234" x2="52.6341" y2="19.4643" gradientUnits="userSpaceOnUse">
<stop stop-color="white"/>
<stop offset="1" stop-color="#757A8C" stop-opacity="0"/>
</linearGradient>
<linearGradient id="paint1_linear_785_25778" x1="148.876" y1="14.8651" x2="191.706" y2="37.8811" gradientUnits="userSpaceOnUse">
<stop stop-color="white"/>
<stop offset="1" stop-color="#757A8C" stop-opacity="0"/>
</linearGradient>
<linearGradient id="paint2_linear_785_25778" x1="148.034" y1="41.5921" x2="163.583" y2="65.8757" gradientUnits="userSpaceOnUse">
<stop stop-color="white"/>
<stop offset="1" stop-color="#757A8C" stop-opacity="0"/>
</linearGradient>
</defs>
</svg>
