<svg width="122" height="7" viewBox="0 0 122 7" fill="none" xmlns="http://www.w3.org/2000/svg">
<path d="M1.771 6.48633H0.210938L0.219727 6.24902H1.771C2.23096 6.24902 2.64111 6.13916 3.00146 5.91943C3.36475 5.69971 3.65039 5.39648 3.8584 5.00977C4.06934 4.62305 4.1748 4.1792 4.1748 3.67822V2.88281C4.1748 2.51074 4.11475 2.16943 3.99463 1.85889C3.87451 1.54541 3.70605 1.27441 3.48926 1.0459C3.27246 0.817383 3.01758 0.640137 2.72461 0.51416C2.43164 0.388184 2.11377 0.325195 1.771 0.325195H0.18457V0.0878906H1.771C2.14893 0.0878906 2.49756 0.155273 2.81689 0.290039C3.13916 0.424805 3.41895 0.616699 3.65625 0.865723C3.89648 1.11475 4.08252 1.41211 4.21436 1.75781C4.34619 2.10059 4.41211 2.47998 4.41211 2.896V3.67822C4.41211 4.09424 4.34619 4.4751 4.21436 4.8208C4.08252 5.16357 3.89648 5.45947 3.65625 5.7085C3.41895 5.95752 3.13916 6.14941 2.81689 6.28418C2.49756 6.41895 2.14893 6.48633 1.771 6.48633ZM0.237305 0.0878906V6.48633H0V0.0878906H0.237305ZM8.55176 0.0878906V6.48633H8.31445V0.0878906H8.55176ZM14.6733 5.8623L16.8223 0.0878906H17.0815L14.6909 6.48633H14.4668L14.6733 5.8623ZM12.2695 0.0878906L14.4185 5.8623L14.625 6.48633H14.4009L12.0103 0.0878906H12.2695ZM24.2578 6.24902V6.48633H20.4478V6.24902H24.2578ZM20.6016 0.0878906V6.48633H20.3643V0.0878906H20.6016ZM23.8096 3.07617V3.31348H20.4478V3.07617H23.8096ZM24.2578 0.0878906V0.325195H20.4478V0.0878906H24.2578ZM27.646 3.38379C27.646 3.31641 27.6694 3.25928 27.7163 3.2124C27.7632 3.1626 27.8203 3.1377 27.8877 3.1377C27.9551 3.1377 28.0122 3.1626 28.0591 3.2124C28.1089 3.25928 28.1338 3.31641 28.1338 3.38379C28.1338 3.45117 28.1089 3.5083 28.0591 3.55518C28.0122 3.60205 27.9551 3.62549 27.8877 3.62549C27.8203 3.62549 27.7632 3.60205 27.7163 3.55518C27.6694 3.5083 27.646 3.45117 27.646 3.38379ZM32.4756 0.0878906V6.48633H32.2383V0.0878906H32.4756ZM41.269 0.0878906V6.48633H41.0317L36.9009 0.492188V6.48633H36.6592V0.0878906H36.9009L41.0317 6.06885V0.0878906H41.269ZM47.0786 0.0878906V6.48633H46.8413V0.0878906H47.0786ZM49.4077 0.0878906V0.325195H44.5122V0.0878906H49.4077ZM57.186 2.80811V3.76611C57.186 4.18213 57.1289 4.56299 57.0146 4.90869C56.9033 5.25146 56.7422 5.54736 56.5312 5.79639C56.3232 6.04541 56.0713 6.2373 55.7754 6.37207C55.4795 6.50684 55.147 6.57422 54.7778 6.57422C54.4116 6.57422 54.0791 6.50684 53.7803 6.37207C53.4844 6.2373 53.2295 6.04541 53.0156 5.79639C52.8047 5.54736 52.6421 5.25146 52.5278 4.90869C52.4165 4.56299 52.3608 4.18213 52.3608 3.76611V2.80811C52.3608 2.38916 52.4165 2.0083 52.5278 1.66553C52.6421 1.32275 52.8047 1.02686 53.0156 0.777832C53.2266 0.528809 53.48 0.336914 53.7759 0.202148C54.0718 0.0673828 54.4028 0 54.769 0C55.1382 0 55.4707 0.0673828 55.7666 0.202148C56.0625 0.336914 56.3159 0.528809 56.5269 0.777832C56.7407 1.02686 56.9033 1.32275 57.0146 1.66553C57.1289 2.0083 57.186 2.38916 57.186 2.80811ZM56.9487 3.76611V2.79932C56.9487 2.42432 56.9004 2.08154 56.8037 1.771C56.707 1.45752 56.5649 1.18652 56.3774 0.958008C56.1899 0.729492 55.9614 0.552246 55.6919 0.42627C55.4224 0.300293 55.1147 0.237305 54.769 0.237305C54.4263 0.237305 54.1201 0.300293 53.8506 0.42627C53.584 0.552246 53.3569 0.729492 53.1694 0.958008C52.9849 1.18652 52.8442 1.45752 52.7476 1.771C52.6509 2.08154 52.6025 2.42432 52.6025 2.79932V3.76611C52.6025 4.14404 52.6509 4.48975 52.7476 4.80322C52.8472 5.1167 52.9893 5.3877 53.1738 5.61621C53.3613 5.84473 53.5898 6.02197 53.8594 6.14795C54.1289 6.27393 54.4351 6.33691 54.7778 6.33691C55.1235 6.33691 55.4297 6.27393 55.6963 6.14795C55.9658 6.02197 56.1929 5.84473 56.3774 5.61621C56.5649 5.3877 56.707 5.1167 56.8037 4.80322C56.9004 4.48975 56.9487 4.14404 56.9487 3.76611ZM60.8071 3.38379C60.8071 3.31641 60.8306 3.25928 60.8774 3.2124C60.9243 3.1626 60.9814 3.1377 61.0488 3.1377C61.1162 3.1377 61.1733 3.1626 61.2202 3.2124C61.27 3.25928 61.2949 3.31641 61.2949 3.38379C61.2949 3.45117 61.27 3.5083 61.2202 3.55518C61.1733 3.60205 61.1162 3.62549 61.0488 3.62549C60.9814 3.62549 60.9243 3.60205 60.8774 3.55518C60.8306 3.5083 60.8071 3.45117 60.8071 3.38379ZM68.748 6.24902V6.48633H65.3115V6.24902H68.748ZM65.4653 0.0878906V6.48633H65.2236V0.0878906H65.4653ZM76.0166 6.24902V6.48633H72.2065V6.24902H76.0166ZM72.3604 0.0878906V6.48633H72.123V0.0878906H72.3604ZM75.5684 3.07617V3.31348H72.2065V3.07617H75.5684ZM76.0166 0.0878906V0.325195H72.2065V0.0878906H76.0166ZM81.334 0.290039L79.0225 6.48633H78.7632L81.1582 0.0878906H81.3867L81.334 0.290039ZM83.584 6.48633L81.2725 0.290039L81.2241 0.0878906H81.4482L83.8433 6.48633H83.584ZM82.9072 4.3374V4.57471H79.7036V4.3374H82.9072ZM87.104 0.0878906H89.1431C89.5503 0.0878906 89.9121 0.159668 90.2285 0.303223C90.5449 0.443848 90.7925 0.651855 90.9712 0.927246C91.1528 1.19971 91.2437 1.53516 91.2437 1.93359C91.2437 2.24414 91.1763 2.52539 91.0415 2.77734C90.9067 3.02637 90.7266 3.23145 90.501 3.39258C90.2754 3.55371 90.0234 3.65479 89.7451 3.6958L89.6089 3.74854H87.1611L87.1523 3.51123H89.3584C89.7246 3.51123 90.0293 3.43506 90.2725 3.28271C90.5156 3.13037 90.6987 2.93408 90.8218 2.69385C90.9448 2.45068 91.0063 2.19727 91.0063 1.93359C91.0063 1.59668 90.9302 1.30957 90.7778 1.07227C90.6255 0.832031 90.4087 0.647461 90.1274 0.518555C89.8491 0.389648 89.521 0.325195 89.1431 0.325195H87.3413V6.48633H87.104V0.0878906ZM91.2612 6.48633L89.5078 3.66504L89.7847 3.65625L91.5117 6.4248V6.48633H91.2612ZM99.8745 0.0878906V6.48633H99.6372L95.5063 0.492188V6.48633H95.2646V0.0878906H95.5063L99.6372 6.06885V0.0878906H99.8745ZM104.3 0.0878906V6.48633H104.062V0.0878906H104.3ZM113.093 0.0878906V6.48633H112.856L108.725 0.492188V6.48633H108.483V0.0878906H108.725L112.856 6.06885V0.0878906H113.093ZM121.614 3.58594V5.80078C121.547 5.89746 121.419 6.00586 121.232 6.12598C121.047 6.24609 120.804 6.35156 120.502 6.44238C120.204 6.53027 119.846 6.57422 119.43 6.57422C119.067 6.57422 118.734 6.50684 118.433 6.37207C118.131 6.2373 117.87 6.04541 117.65 5.79639C117.431 5.54443 117.261 5.24707 117.141 4.9043C117.023 4.55859 116.965 4.17773 116.965 3.76172V2.71582C116.965 2.31152 117.022 1.94385 117.136 1.61279C117.253 1.28174 117.417 0.996094 117.628 0.755859C117.842 0.512695 118.096 0.32666 118.389 0.197754C118.682 0.065918 119.004 0 119.355 0C119.818 0 120.209 0.0805664 120.529 0.241699C120.848 0.402832 121.097 0.621094 121.276 0.896484C121.458 1.16895 121.567 1.47656 121.605 1.81934H121.368C121.324 1.54102 121.229 1.28174 121.083 1.0415C120.936 0.80127 120.722 0.60791 120.441 0.461426C120.163 0.312012 119.801 0.237305 119.355 0.237305C119.03 0.237305 118.734 0.298828 118.468 0.421875C118.204 0.541992 117.977 0.711914 117.787 0.931641C117.599 1.15137 117.454 1.41211 117.352 1.71387C117.252 2.01562 117.202 2.34668 117.202 2.70703V3.76172C117.202 4.13965 117.253 4.48535 117.356 4.79883C117.461 5.1123 117.612 5.38477 117.809 5.61621C118.005 5.84473 118.239 6.02197 118.512 6.14795C118.787 6.27393 119.093 6.33691 119.43 6.33691C119.779 6.33691 120.086 6.30176 120.353 6.23145C120.623 6.1582 120.844 6.07178 121.017 5.97217C121.192 5.86963 121.312 5.77588 121.377 5.69092V3.82764H119.421V3.58594H121.614Z" fill="url(#paint0_linear_785_27417)"/>
<defs>
<linearGradient id="paint0_linear_785_27417" x1="93.9845" y1="0.629188" x2="109.533" y2="24.9128" gradientUnits="userSpaceOnUse">
<stop stop-color="white"/>
<stop offset="1" stop-color="#757A8C" stop-opacity="0"/>
</linearGradient>
</defs>
</svg>
