<svg width="50" height="55" viewBox="0 0 50 55" fill="none" xmlns="http://www.w3.org/2000/svg">
<g filter="url(#filter0_d_542_22168)">
<path d="M42.9018 14.2307C45.5383 14.9185 45.674 16.9481 43.4893 19.0847C44.1873 20.0159 43.4198 20.6716 40.8189 21.9865C35.3843 24.7495 32.7963 29.5358 31.8464 35.7571C32.0599 37.6581 33.1316 37.7481 34.6236 36.6013C36.3299 35.0064 38.9954 35.0802 39.5371 35.4405C40.0788 35.8009 37.8852 36.6314 38.0951 37.762C38.0259 38.5901 35.4798 39.5031 35.5315 39.978C35.5832 40.4529 36.7867 40.711 36.8133 42.0356V45.5178C36.5359 45.8568 34.2834 45.254 33.1282 42.6688C32.6695 40.4138 32.1881 39.4582 30.5112 38.9755C23.1248 37.2935 20.0448 34.9553 17.3729 26.9988C17.7519 26.5419 20.3637 26.1546 20.0432 26.2602C19.7228 26.3657 15.7905 26.8408 13.8479 28.3178C10.4357 24.1257 15.8257 20.6675 20.6307 19.7706C25.4357 18.8737 17.3729 20.1927 17.3729 20.1927C18.1203 17.0568 19.4791 14.5214 21.195 12.5424M42.9018 14.2307C42.6248 9.46835 38.0851 6.84713 32.8629 6.98876M42.9018 14.2307C41.9469 14.0451 41.4715 14.1791 41.0369 14.4945M24.3176 9.76799C26.9845 7.95887 30.0245 7.06573 32.8629 6.98876M24.3176 9.76799C24.6146 6.1325 28.6888 3.48199 32.8629 6.98876M24.3176 9.76799C23.1966 10.5285 22.1415 11.4508 21.195 12.5424M38.4707 7.79389L41.5149 5.3669C42.1766 4.73335 42.2919 4.39948 41.5149 3.88959L28.2164 0.565664C27.3614 0.434282 26.9322 0.48086 26.2937 0.882229L15.4519 9.76799C14.9762 10.557 15.2042 10.8068 15.9326 11.1178L17.8019 11.6238M21.195 12.5424L17.8019 11.6238M17.8019 11.6238C16.5296 12.271 16.8405 13.281 14.544 13.281M14.544 13.281C12.8361 12.2823 11.8249 12.274 10.154 13.281C8.93744 13.8094 6.96006 13.4921 6.47939 12.8589C5.99872 12.2258 4.61012 16.0773 4.5033 16.6577C4.39649 17.2381 7.99078 18.1539 10.6986 17.2381C12.8598 16.3518 13.6683 15.4348 14.544 13.281Z" stroke="url(#paint0_linear_542_22168)" stroke-linecap="round" shape-rendering="crispEdges"/>
</g>
<defs>
<filter id="filter0_d_542_22168" x="0" y="0" width="49.5137" height="54.104" filterUnits="userSpaceOnUse" color-interpolation-filters="sRGB">
<feFlood flood-opacity="0" result="BackgroundImageFix"/>
<feColorMatrix in="SourceAlpha" type="matrix" values="0 0 0 0 0 0 0 0 0 0 0 0 0 0 0 0 0 0 127 0" result="hardAlpha"/>
<feOffset dy="4"/>
<feGaussianBlur stdDeviation="2"/>
<feComposite in2="hardAlpha" operator="out"/>
<feColorMatrix type="matrix" values="0 0 0 0 0 0 0 0 0 0 0 0 0 0 0 0 0 0 0.25 0"/>
<feBlend mode="normal" in2="BackgroundImageFix" result="effect1_dropShadow_542_22168"/>
<feBlend mode="normal" in="SourceGraphic" in2="effect1_dropShadow_542_22168" result="shape"/>
</filter>
<linearGradient id="paint0_linear_542_22168" x1="26.9139" y1="58.6863" x2="52.5243" y2="38.8588" gradientUnits="userSpaceOnUse">
<stop stop-color="#339CFE"/>
<stop offset="1" stop-color="#62CBFF"/>
</linearGradient>
</defs>
</svg>
