<svg width="30" height="30" viewBox="0 0 30 30" fill="none" xmlns="http://www.w3.org/2000/svg">
<path d="M0 15C0 6.71573 6.71573 0 15 0C23.2843 0 30 6.71573 30 15C30 23.2843 23.2843 30 15 30C6.71573 30 0 23.2843 0 15Z" fill="url(#paint0_linear_2199_224)"/>
<path d="M23.2904 10.6836C24.5805 11.0202 24.6469 12.0133 23.5779 13.0588C23.9195 13.5144 23.5439 13.8353 22.2712 14.4787C19.6119 15.8307 18.3456 18.1728 17.8808 21.217C17.9852 22.1472 18.5096 22.1912 19.2397 21.6301C20.0747 20.8496 21.379 20.8857 21.644 21.0621C21.9091 21.2384 20.8357 21.6448 20.9384 22.198C20.9045 22.6032 19.6587 23.05 19.684 23.2823C19.7093 23.5147 20.2982 23.6411 20.3112 24.2892V25.9931C20.1754 26.159 19.0733 25.864 18.508 24.599C18.2835 23.4956 18.048 23.028 17.2274 22.7918C13.6131 21.9688 12.106 20.8246 10.7985 16.9313C10.984 16.7077 12.262 16.5183 12.1052 16.5699C11.9484 16.6215 10.0242 16.854 9.07369 17.5768C7.40402 15.5255 10.0415 13.8333 12.3927 13.3944C14.7439 12.9555 10.7985 13.6009 10.7985 13.6009C11.1642 12.0665 11.8292 10.8258 12.6688 9.85746M23.2904 10.6836C23.1549 8.35327 20.9335 7.07065 18.3781 7.13995M23.2904 10.6836C22.8232 10.5928 22.5906 10.6583 22.3779 10.8127M14.1967 8.49989C15.5017 7.61464 16.9893 7.17761 18.3781 7.13995M14.1967 8.49989C14.3421 6.72096 16.3357 5.424 18.3781 7.13995M14.1967 8.49989C13.6482 8.87201 13.1319 9.32332 12.6688 9.85746M21.1222 7.53392L22.6118 6.34633C22.9356 6.03632 22.992 5.87295 22.6118 5.62345L16.1045 3.99697C15.6862 3.93269 15.4761 3.95548 15.1637 4.15188L9.85855 8.49989C9.62577 8.88596 9.73736 9.00819 10.0938 9.16039L11.0084 9.408M12.6688 9.85746L11.0084 9.408M11.0084 9.408C10.3859 9.72467 10.538 10.2189 9.41428 10.2189M9.41428 10.2189C8.57856 9.73018 8.08378 9.72616 7.26615 10.2189C6.67087 10.4774 5.70329 10.3222 5.46809 10.0124C5.23288 9.70255 4.55341 11.5872 4.50114 11.8712C4.44887 12.1552 6.20764 12.6033 7.53265 12.1552C8.59018 11.7215 8.98577 11.2728 9.41428 10.2189Z" stroke="#F5FAFF" stroke-width="0.489324" stroke-linecap="round"/>
<defs>
<linearGradient id="paint0_linear_2199_224" x1="16.597" y1="38.7014" x2="33.9997" y2="23.7014" gradientUnits="userSpaceOnUse">
<stop stop-color="#339CFE"/>
<stop offset="1" stop-color="#62CBFF"/>
</linearGradient>
</defs>
</svg>
