<svg width="24" height="24" viewBox="0 0 24 24" fill="none" xmlns="http://www.w3.org/2000/svg">
<path d="M20.25 3.9375H3.75C3.4019 3.9375 3.06806 4.07578 2.82192 4.32192C2.57578 4.56806 2.4375 4.9019 2.4375 5.25V20.25C2.43747 20.3459 2.46194 20.4401 2.5086 20.5239C2.55525 20.6076 2.62253 20.6781 2.70406 20.7285C2.78558 20.779 2.87865 20.8077 2.97442 20.8121C3.07018 20.8164 3.16548 20.7963 3.25125 20.7534L6 19.3791L8.74875 20.7534C8.82678 20.7924 8.91279 20.8127 9 20.8127C9.08721 20.8127 9.17322 20.7924 9.25125 20.7534L12 19.3791L14.7488 20.7534C14.8268 20.7924 14.9128 20.8127 15 20.8127C15.0872 20.8127 15.1732 20.7924 15.2512 20.7534L18 19.3791L20.7488 20.7534C20.8268 20.7923 20.9128 20.8125 21 20.8125C21.1044 20.8127 21.2067 20.7834 21.2953 20.7281C21.3769 20.6778 21.4443 20.6075 21.491 20.5238C21.5378 20.4401 21.5624 20.3459 21.5625 20.25V5.25C21.5625 4.9019 21.4242 4.56806 21.1781 4.32192C20.9319 4.07578 20.5981 3.9375 20.25 3.9375ZM20.4375 19.3397L18.2512 18.2466C18.1732 18.2076 18.0872 18.1873 18 18.1873C17.9128 18.1873 17.8268 18.2076 17.7488 18.2466L15 19.6209L12.2512 18.2466C12.1732 18.2076 12.0872 18.1873 12 18.1873C11.9128 18.1873 11.8268 18.2076 11.7487 18.2466L9 19.6209L6.25125 18.2466C6.17322 18.2076 6.08721 18.1873 6 18.1873C5.91279 18.1873 5.82678 18.2076 5.74875 18.2466L3.5625 19.3397V5.25C3.5625 5.20027 3.58225 5.15258 3.61742 5.11742C3.65258 5.08225 3.70027 5.0625 3.75 5.0625H20.25C20.2997 5.0625 20.3474 5.08225 20.3826 5.11742C20.4177 5.15258 20.4375 5.20027 20.4375 5.25V19.3397ZM9.50344 8.74594C9.45679 8.65233 9.38496 8.57359 9.29603 8.51855C9.2071 8.46351 9.10459 8.43435 9 8.43435C8.89541 8.43435 8.7929 8.46351 8.70397 8.51855C8.61504 8.57359 8.54321 8.65233 8.49656 8.74594L5.49656 14.7459C5.46357 14.812 5.44392 14.884 5.43874 14.9577C5.43355 15.0314 5.44294 15.1054 5.46636 15.1755C5.48977 15.2456 5.52676 15.3104 5.57522 15.3662C5.62367 15.4219 5.68264 15.4676 5.74875 15.5006C5.81486 15.5336 5.88683 15.5533 5.96053 15.5585C6.03424 15.5636 6.10824 15.5542 6.17832 15.5308C6.2484 15.5074 6.31318 15.4704 6.36897 15.422C6.42475 15.3735 6.47044 15.3145 6.50344 15.2484L7.09781 14.0625H10.9022L11.4966 15.2512C11.5632 15.3848 11.6801 15.4864 11.8217 15.5336C11.9632 15.5809 12.1177 15.5701 12.2512 15.5034C12.3848 15.4368 12.4864 15.3199 12.5336 15.1783C12.5809 15.0368 12.5701 14.8823 12.5034 14.7487L9.50344 8.74594ZM7.66031 12.9375L9 10.2581L10.3397 12.9375H7.66031ZM18.5625 12C18.5625 12.1492 18.5032 12.2923 18.3977 12.3977C18.2923 12.5032 18.1492 12.5625 18 12.5625H16.3125V14.25C16.3125 14.3992 16.2532 14.5423 16.1477 14.6477C16.0423 14.7532 15.8992 14.8125 15.75 14.8125C15.6008 14.8125 15.4577 14.7532 15.3523 14.6477C15.2468 14.5423 15.1875 14.3992 15.1875 14.25V12.5625H13.5C13.3508 12.5625 13.2077 12.5032 13.1023 12.3977C12.9968 12.2923 12.9375 12.1492 12.9375 12C12.9375 11.8508 12.9968 11.7077 13.1023 11.6023C13.2077 11.4968 13.3508 11.4375 13.5 11.4375H15.1875V9.75C15.1875 9.60082 15.2468 9.45774 15.3523 9.35225C15.4577 9.24676 15.6008 9.1875 15.75 9.1875C15.8992 9.1875 16.0423 9.24676 16.1477 9.35225C16.2532 9.45774 16.3125 9.60082 16.3125 9.75V11.4375H18C18.1492 11.4375 18.2923 11.4968 18.3977 11.6023C18.5032 11.7077 18.5625 11.8508 18.5625 12Z" fill="#3F4850"/>
</svg>
